# xmcd CD database file
#
# Track frame offsets:
#	150
#	12724
#	24768
#	37112
#	54034
#	66786
#	81338
#	92209
#	111209
#	125461
#	144437
#	160093
#	176678
#
# Disc length: 2534 seconds
#
# Revision: 0
# Processed by: cddbd v1.4PL0 Copyright (c) Steve Scherf et al.
# Submitted via: Feurio! 1.66 - http://www.feurio.com
#
DISCID=a709e40d
DTITLE=Various Artist - The Very Best of Country  CD1(2)
DYEAR=1900
DGENRE=country
TTITLE0=Hank Williams - Your Cheatin' Heart
TTITLE1=Dolly Parton - Jolene
TTITLE2=Johnny Cash - Folsom Prison Blues
TTITLE3=The Byrds - I Am A Pilgrim
TTITLE4=Roy Orbison - Crying
TTITLE5=Soggy Bottom Boys - Man Of Constant Sorrow
TTITLE6=Willie Nelson - Blue Eyes Cryin' In The Rain
TTITLE7=Flying Burrito Brothers - Sin City
TTITLE8=Glen Campbell - Wichita Lineman
TTITLE9=Kris Kristofferson - Me And Bobby McGee
TTITLE10=Don McLean - Crazy
TTITLE11=Townes Van Zandt - Pancho And Lefty
TTITLE12=Waylon Jennings - Are You Sure Hank Done It This Way
EXTD=
EXTT0=
EXTT1=
EXTT2=
EXTT3=
EXTT4=
EXTT5=
EXTT6=
EXTT7=
EXTT8=
EXTT9=
EXTT10=
EXTT11=
EXTT12=
PLAYORDER=
